inDegrees=yes
name=ik_S54_A06_T02
DataType=double
version=3
OpenSimVersion=4.3-2021-08-27-4bc7ad9
endheader
time	pelvis_tilt	pelvis_list	pelvis_rotation	pelvis_tx	pelvis_ty	pelvis_tz	hip_flexion_r	hip_adduction_r	hip_rotation_r	knee_angle_r	knee_angle_r_beta	ankle_angle_r	subtalar_angle_r	mtp_angle_r	hip_flexion_l	hip_adduction_l	hip_rotation_l	knee_angle_l	knee_angle_l_beta	ankle_angle_l	subtalar_angle_l	mtp_angle_l	lumbar_extension	lumbar_bending	lumbar_rotation	arm_flex_r	arm_add_r	arm_rot_r	elbow_flex_r	pro_sup_r	wrist_flex_r	wrist_dev_r	arm_flex_l	arm_add_l	arm_rot_l	elbow_flex_l	pro_sup_l	wrist_flex_l	wrist_dev_l
7.499999999999928	-7.257279840984098	-1.029383758580644	21.51378916516165	0	0.9399999999999999	0	32.05473928193431	-11.72519014232783	-9.652055522054084	41.6459937886615	0.7268597118772506	0	0	0	32.05473928193431	-11.72519014232783	-9.652055522054084	41.6459937886615	0.7268597118772506	0	0	0	-4.852467955191256	-2.51498051766684	-1.285701882210247	35.10055884211782	1.424004133358849	-0.3759603913447155	47.11844688812898	139.3052128995611	0	0	20.73692305117368	-23.699750187725	-20.39856367506417	69.04296055316057	139.9271377779047	0	0
7.519999999999928	-7.17639404389912	-1.104904579434826	21.68557931015874	0	0.9399999999999999	0	32.06083112896992	-11.72243862269584	-9.652411132897486	41.65026250126315	0.7269342149669709	0	0	0	32.06083112896992	-11.72243862269584	-9.652411132897486	41.65026250126315	0.7269342149669709	0	0	0	-4.805965629076567	-2.611602483259687	-1.305433742688852	35.01765208025842	1.377015833419681	-0.4578562816747908	47.11118048289226	139.3416741366177	0	0	20.19594189938442	-23.23171436386489	-20.60981357315938	68.09732606186944	141.3374937315018	0	0
7.539999999999927	-7.074997135122356	-1.154282879584824	21.78987193126165	0	0.9399999999999999	0	32.06608266620288	-11.72008497665594	-9.65271620485149	41.65396781809562	0.726998884945527	0	0	0	32.06608266620288	-11.72008497665594	-9.65271620485149	41.65396781809562	0.726998884945527	0	0	0	-4.729425021998251	-2.69585326241112	-1.296081985921689	34.91378425454008	1.420314534128318	-0.5844153118863756	47.04485316746749	139.4823699920036	0	0	19.75177831160879	-22.76532060822363	-20.58675379593492	67.00949321099996	142.873369933815	0	0
7.559999999999927	-7.002198060989446	-1.188940346869809	21.76213202602525	0	0.9399999999999999	0	32.07378377609472	-11.71662314038644	-9.653164528547867	41.65938037898297	0.7270933519539761	0	0	0	32.07378377609472	-11.71662314038644	-9.653164528547867	41.65938037898297	0.7270933519539761	0	0	0	-4.673136217789041	-2.763344470784967	-1.20015029201129	34.86339908403599	1.46320941405524	-0.6589414184371905	46.95954841975513	139.607267096128	0	0	19.54981522411551	-22.23037187815449	-20.353460059917	65.75452034594016	144.3942204210677	0	0
7.579999999999926	-6.923447495688873	-1.199348315608142	21.65799493860179	0	0.9399999999999999	0	32.07996579727423	-11.71384777209066	-9.65352419816289	41.66372591001542	0.7271691957782397	0	0	0	32.07996579727423	-11.71384777209066	-9.65352419816289	41.66372591001542	0.7271691957782397	0	0	0	-4.60230107306208	-2.810223412913369	-1.102170134327878	34.80674495323989	1.520340628283338	-0.6376643122555952	46.84614459477584	139.7163324004724	0	0	19.35312918599907	-21.62942063411419	-20.09275936726538	64.48174360377742	145.721650498004	0	0
7.599999999999926	-6.857262243065721	-1.200060905777072	21.54816453262998	0	0.9399999999999999	0	32.08657819481061	-11.71087724647791	-9.653909145266722	41.66836646519616	0.7272501887452643	0	0	0	32.08657819481061	-11.71087724647791	-9.653909145266722	41.66836646519616	0.7272501887452643	0	0	0	-4.538999574391207	-2.844673166114778	-0.9895680829371456	34.77034619264403	1.569084153327333	-0.6086936559905485	46.76656524870751	139.667024161563	0	0	19.20294677992009	-20.92670005306957	-19.7627295261686	63.32517315612284	147.0064334622329	0	0
7.619999999999925	-6.760431004825838	-1.231701303635095	21.40061558278881	0	0.9399999999999999	0	32.09335447839221	-11.70782607073244	-9.654304294995471	41.67310685974221	0.7273329242379363	0	0	0	32.09335447839221	-11.70782607073244	-9.654304294995471	41.67310685974221	0.7273329242379363	0	0	0	-4.459583445536778	-2.914514653198196	-0.9235240698232552	34.62113333915282	1.708689451279637	-0.6082295164410622	46.69344151609564	139.8994521303827	0	0	18.98793444854402	-20.37581670556558	-19.33712734754462	62.36757338883549	148.0345621157477	0	0
7.639999999999925	-6.754900051905881	-1.228249417884988	21.29939711532926	0	0.9399999999999999	0	32.0991200618207	-11.70523429434473	-9.654640212610497	41.67714289830214	0.7274033663995446	0	0	0	32.0991200618207	-11.70523429434473	-9.654640212610497	41.67714289830214	0.7274033663995446	0	0	0	-4.452068981419218	-2.921170490999131	-0.8162511631395024	34.69149131841186	1.69199934037118	-0.5879021824455739	46.59160910267308	139.9439348202964	0	0	19.06237970915507	-19.76343893820779	-18.70905157308352	61.40594045327472	148.4888035616795	0	0
7.659999999999925	-6.695822588676603	-1.270872482548226	21.13136632227124	0	0.9399999999999999	0	32.1048868591479	-11.70264166161561	-9.654976284006086	41.68117592547355	0.7274737560025081	0	0	0	32.1048868591479	-11.70264166161561	-9.654976284006086	41.68117592547355	0.7274737560025081	0	0	0	-4.412352890439959	-2.983270176187427	-0.7956430747511577	34.68339977319607	1.877044738546581	-0.5653177381209712	46.48626119986108	140.0071483105888	0	0	19.10086010395066	-19.41855314666333	-18.20275429968893	60.39933762880533	148.510712109456	0	0
7.679999999999924	-6.657335042871655	-1.292980639048119	20.98378412250535	0	0.9399999999999999	0	32.11019678851999	-11.70025756703905	-9.655285520600644	41.68489111062841	0.7275385982157817	0	0	0	32.11019678851999	-11.70025756703905	-9.655285520600644	41.68489111062841	0.7275385982157817	0	0	0	-4.384178874294779	-3.019292496445368	-0.7679873974741247	34.63658027804282	1.992832047628323	-0.5004954348655494	46.46950575753003	140.0164083145251	0	0	19.1688774767396	-19.02402200621182	-17.70417536992372	59.56933660702024	148.455758490576	0	0
7.699999999999924	-6.621760119421042	-1.313634872695947	20.83990894746832	0	0.9399999999999999	0	32.11502524524349	-11.69808965498411	-9.655566761929601	41.68826676344008	0.7275975144717495	0	0	0	32.11502524524349	-11.69808965498411	-9.655566761929601	41.68826676344008	0.7275975144717495	0	0	0	-4.358578701417115	-3.050745212859395	-0.7643979348852625	34.74403412694096	2.095048234910303	-0.6000098419779323	46.25664831017991	140.118870483501	0	0	19.268159736017	-18.56379487129958	-17.36722877534899	59.43118494685859	148.7015875597637	0	0
7.719999999999923	-6.589222826851071	-1.332192057595998	20.67370891617449	0	0.9399999999999999	0	32.12143520559967	-11.69521519907356	-9.65593989067046	41.6927495723944	0.7276757542477401	0	0	0	32.12143520559967	-11.69521519907356	-9.65593989067046	41.6927495723944	0.7276757542477401	0	0	0	-4.335041371485004	-3.079163301571751	-0.756702555189836	34.78395236722726	2.217718029762365	-0.5029812577293307	46.17932300811205	140.1293146233838	0	0	19.43885573665308	-18.02464618555741	-17.03564762375109	58.80718817509542	148.8442395550117	0	0
